<svg width="617" height="629" viewBox="0 0 617 629" fill="none" xmlns="http://www.w3.org/2000/svg">
<path fill-rule="evenodd" clip-rule="evenodd" d="M335.317 73.4509C423.749 45.9914 538.562 67.5593 593.584 142.037C646.874 214.171 590.376 311.655 576.783 400.304C566.46 467.63 574.436 543.136 524.911 589.898C476.171 635.917 402.349 628.142 335.317 628.295C268.049 628.448 200.409 628.696 144.855 590.765C76.6179 544.174 -12.2322 481.798 1.39827 400.304C15.1276 318.219 139.963 322.641 199.438 264.425C257.479 207.613 257.752 97.5359 335.317 73.4509Z" fill="white" style="fill:white;fill-opacity:1;"/>
<path d="M576.961 109.548C575.853 104.599 574.228 99.8451 572.126 95.2997L571.218 95.7195C567.155 86.9346 561.279 78.9347 553.867 71.813L554.56 71.0919C547.69 64.4912 539.527 58.6476 530.292 53.6284L529.814 54.507C521.523 50.001 512.35 46.1578 502.454 43.0308L502.755 42.0772C493.633 39.1948 483.905 36.9191 473.693 35.2898L473.535 36.2773C464.067 34.7666 454.177 33.8133 443.964 33.4506L443.999 32.4512C434.324 32.1076 424.362 32.292 414.195 33.0318L414.267 34.0291C404.604 34.7323 394.754 35.9391 384.789 37.6737L384.617 36.6885C379.764 37.5334 374.883 38.503 369.984 39.6001C365.085 40.6972 360.257 41.9016 355.506 43.2073L355.771 44.1716C346.018 46.8525 336.594 49.9617 327.554 53.4468L327.194 52.5137C317.683 56.1804 308.593 60.2624 299.988 64.6994L300.447 65.5882C291.363 70.2721 282.824 75.3521 274.905 80.7564L274.341 79.9304C265.799 85.7591 257.97 91.9664 250.949 98.464L251.628 99.198C244.01 106.247 237.352 113.635 231.775 121.247L230.968 120.656C224.756 129.134 219.864 137.901 216.465 146.801L217.399 147.158C213.732 156.76 211.829 166.502 211.901 176.181L210.901 176.188C210.938 181.196 211.496 186.189 212.604 191.138C213.712 196.087 215.337 200.84 217.439 205.386L218.346 204.966C222.41 213.751 228.286 221.751 235.698 228.873L235.005 229.594C241.874 236.194 250.038 242.038 259.273 247.057L259.751 246.179C268.042 250.685 277.214 254.528 287.111 257.655L286.809 258.608C295.932 261.491 305.66 263.766 315.872 265.396L316.029 264.408C325.498 265.919 335.388 266.872 345.601 267.235L345.566 268.234C355.241 268.578 365.203 268.394 375.37 267.654L375.298 266.656C384.961 265.953 394.811 264.746 404.776 263.012L404.947 263.997C409.801 263.152 414.681 262.183 419.581 261.085C424.48 259.988 429.308 258.784 434.059 257.478L433.794 256.514C443.547 253.833 452.971 250.724 462.011 247.239L462.371 248.172C471.882 244.505 480.972 240.423 489.577 235.986L489.118 235.097C498.202 230.413 506.741 225.333 514.66 219.929L515.224 220.755C523.766 214.926 531.594 208.719 538.616 202.222L537.937 201.488C545.555 194.439 552.213 187.051 557.79 179.439L558.597 180.03C564.809 171.552 569.701 162.785 573.1 153.884L572.166 153.528C575.832 143.925 577.736 134.183 577.664 124.505L578.664 124.497C578.627 119.489 578.069 114.497 576.961 109.548Z" stroke="#484848" style="stroke:#484848;stroke:color(display-p3 0.2833 0.2833 0.2833);stroke-opacity:1;" stroke-width="2" stroke-dasharray="30 30"/>
</svg>
